<svg width="151" height="34" viewBox="0 0 151 34" fill="none" xmlns="http://www.w3.org/2000/svg">
<path d="M58.7576 9.3262V25H56.6965V13.3126L51.487 25H50.0374L44.8052 13.2899V25H42.7441V9.3262H44.9638L50.7622 22.282L56.5606 9.3262H58.7576ZM61.483 18.7486C61.483 17.4802 61.7397 16.3703 62.2531 15.419C62.7665 14.4526 63.4687 13.7052 64.3596 13.1767C65.2656 12.6482 66.2697 12.3839 67.372 12.3839C68.4592 12.3839 69.403 12.618 70.2033 13.0861C71.0036 13.5542 71.6 14.1431 71.9926 14.8528V12.5878H74.0764V25H71.9926V22.6897C71.5849 23.4145 70.9734 24.0185 70.158 24.5017C69.3577 24.9698 68.4215 25.2039 67.3494 25.2039C66.2471 25.2039 65.2505 24.9321 64.3596 24.3884C63.4687 23.8448 62.7665 23.0823 62.2531 22.1008C61.7397 21.1193 61.483 20.0019 61.483 18.7486ZM71.9926 18.7712C71.9926 17.835 71.8039 17.0196 71.4264 16.325C71.0489 15.6304 70.5355 15.1019 69.8862 14.7395C69.252 14.362 68.5498 14.1733 67.7797 14.1733C67.0096 14.1733 66.3075 14.3545 65.6733 14.7169C65.0391 15.0793 64.5332 15.6078 64.1557 16.3024C63.7782 16.997 63.5895 17.8124 63.5895 18.7486C63.5895 19.6999 63.7782 20.5304 64.1557 21.2401C64.5332 21.9347 65.0391 22.4707 65.6733 22.8482C66.3075 23.2106 67.0096 23.3918 67.7797 23.3918C68.5498 23.3918 69.252 23.2106 69.8862 22.8482C70.5355 22.4707 71.0489 21.9347 71.4264 21.2401C71.8039 20.5304 71.9926 19.7074 71.9926 18.7712ZM79.6207 14.6036C79.9831 13.8939 80.4965 13.3428 81.1609 12.9502C81.8404 12.5576 82.6634 12.3613 83.6298 12.3613V14.4904H83.0862C80.7759 14.4904 79.6207 15.7437 79.6207 18.2503V25H77.5596V12.5878H79.6207V14.6036ZM90.4032 25.2039C89.4519 25.2039 88.5987 25.0453 87.8437 24.7282C87.0887 24.396 86.4923 23.943 86.0544 23.3692C85.6165 22.7803 85.3749 22.1083 85.3296 21.3533H87.4587C87.5191 21.9724 87.806 22.4783 88.3194 22.8709C88.8479 23.2635 89.5349 23.4598 90.3805 23.4598C91.1657 23.4598 91.7848 23.2861 92.2378 22.9388C92.6908 22.5915 92.9173 22.1536 92.9173 21.6251C92.9173 21.0816 92.6757 20.6814 92.1925 20.4247C91.7093 20.1529 90.9619 19.8886 89.9502 19.6319C89.0291 19.3903 88.2741 19.1487 87.6852 18.9071C87.1114 18.6504 86.6131 18.2805 86.1903 17.7973C85.7826 17.299 85.5787 16.6497 85.5787 15.8494C85.5787 15.2152 85.7675 14.6338 86.145 14.1053C86.5225 13.5768 87.0585 13.1616 87.7531 12.8596C88.4477 12.5425 89.2405 12.3839 90.1314 12.3839C91.5055 12.3839 92.6153 12.7312 93.4609 13.4258C94.3065 14.1204 94.7595 15.0717 94.8199 16.2797H92.7588C92.7135 15.6304 92.4492 15.1095 91.966 14.7169C91.4979 14.3243 90.8637 14.128 90.0634 14.128C89.3235 14.128 88.7346 14.2865 88.2967 14.6036C87.8588 14.9207 87.6399 15.336 87.6399 15.8494C87.6399 16.2571 87.7682 16.5968 88.0249 16.8686C88.2967 17.1253 88.6289 17.3367 89.0215 17.5028C89.4292 17.6538 89.9879 17.8275 90.6976 18.0238C91.5885 18.2654 92.3133 18.507 92.872 18.7486C93.4307 18.9751 93.9064 19.3224 94.299 19.7905C94.7067 20.2586 94.9181 20.8701 94.9332 21.6251C94.9332 22.3046 94.7444 22.9162 94.3669 23.4598C93.9894 24.0034 93.4534 24.4337 92.7588 24.7508C92.0793 25.0529 91.2941 25.2039 90.4032 25.2039ZM107.56 9.21295V10.889H103.256V25H101.195V10.889H96.8689V9.21295H107.56ZM121.422 18.3182C121.422 18.7108 121.399 19.1261 121.354 19.564H111.433C111.509 20.7871 111.924 21.7459 112.679 22.4405C113.449 23.12 114.378 23.4598 115.465 23.4598C116.356 23.4598 117.096 23.2559 117.685 22.8482C118.289 22.4254 118.711 21.8667 118.953 21.1721H121.173C120.84 22.365 120.176 23.339 119.179 24.094C118.183 24.8339 116.945 25.2039 115.465 25.2039C114.287 25.2039 113.23 24.9396 112.294 24.4111C111.373 23.8826 110.648 23.1351 110.119 22.1688C109.591 21.1872 109.327 20.0547 109.327 18.7712C109.327 17.4877 109.583 16.3628 110.097 15.3964C110.61 14.43 111.327 13.6901 112.249 13.1767C113.185 12.6482 114.257 12.3839 115.465 12.3839C116.643 12.3839 117.685 12.6406 118.591 13.1541C119.497 13.6674 120.191 14.3771 120.674 15.2831C121.173 16.174 121.422 17.1857 121.422 18.3182ZM119.293 17.8879C119.293 17.1027 119.119 16.4307 118.772 15.872C118.424 15.2982 117.949 14.8679 117.345 14.581C116.756 14.279 116.099 14.128 115.374 14.128C114.332 14.128 113.441 14.4602 112.702 15.1246C111.977 15.789 111.562 16.7101 111.456 17.8879H119.293ZM123.372 18.7712C123.372 17.4877 123.629 16.3703 124.142 15.419C124.656 14.4526 125.366 13.7052 126.272 13.1767C127.193 12.6482 128.242 12.3839 129.42 12.3839C130.945 12.3839 132.198 12.7539 133.18 13.4938C134.176 14.2337 134.833 15.2605 135.15 16.5742H132.931C132.719 15.8192 132.304 15.2227 131.685 14.7848C131.081 14.3469 130.326 14.128 129.42 14.128C128.242 14.128 127.291 14.5357 126.566 15.3511C125.841 16.1514 125.479 17.2914 125.479 18.7712C125.479 20.2661 125.841 21.4213 126.566 22.2367C127.291 23.0521 128.242 23.4598 129.42 23.4598C130.326 23.4598 131.081 23.2484 131.685 22.8256C132.289 22.4028 132.704 21.7988 132.931 21.0136H135.15C134.818 22.282 134.154 23.3012 133.157 24.0713C132.161 24.8264 130.915 25.2039 129.42 25.2039C128.242 25.2039 127.193 24.9396 126.272 24.4111C125.366 23.8826 124.656 23.1351 124.142 22.1688C123.629 21.2023 123.372 20.0698 123.372 18.7712ZM144.061 12.3613C144.998 12.3613 145.843 12.5651 146.598 12.9728C147.353 13.3655 147.942 13.9619 148.365 14.7622C148.803 15.5625 149.022 16.5364 149.022 17.684V25H146.983V17.9785C146.983 16.7403 146.674 15.7965 146.055 15.1472C145.435 14.4828 144.59 14.1506 143.518 14.1506C142.431 14.1506 141.562 14.4904 140.913 15.1699C140.279 15.8494 139.962 16.8384 139.962 18.1371V25H137.901V8.239H139.962V14.3545C140.369 13.7203 140.928 13.2295 141.638 12.8822C142.363 12.5349 143.17 12.3613 144.061 12.3613Z" fill="#FEFFF8"/>
<circle cx="27.5763" cy="29.6369" r="3.18182" fill="url(#paint0_linear_1025_464)"/>
<circle cx="33.4093" cy="3.65146" r="1.59091" fill="url(#paint1_linear_1025_464)"/>
<path fill-rule="evenodd" clip-rule="evenodd" d="M29.7325 24.7894C31.0597 22.4662 31.8182 19.7762 31.8182 16.9091C31.8182 8.12274 24.6954 1 15.9091 1C7.12274 1 0 8.12274 0 16.9091C0 21.1706 1.67556 25.0408 4.40382 27.8968L16.5995 15.701C16.5014 15.5014 16.532 15.3639 16.6719 15.1763L16.5361 15.0404L16.7738 14.8027L15.2113 12.6966L15.8906 12.0172C16.0605 11.8473 16.7059 11.9323 17.3513 12.0172C17.9967 12.1021 18.6421 12.187 18.812 12.0172C19.2312 11.7586 19.6462 11.4809 20.046 11.2133L20.0461 11.2133C21.3688 10.3282 22.5261 9.55382 23.1261 9.94507C23.6109 10.6885 22.5178 12.1806 21.2195 13.9527L21.02 14.2252C20.8501 14.395 20.9266 15.0319 21.003 15.6689C21.0794 16.3058 21.1559 16.9427 20.986 17.1125L20.3066 17.7919L18.2685 16.2973L18.0307 16.5351L17.8948 16.3992C17.6914 16.5561 17.5488 16.5782 17.337 16.459L5.15912 28.6368C7.99036 31.2334 11.7647 32.8182 15.9091 32.8182C18.2843 32.8182 20.5379 32.2977 22.5621 31.3645C22.3754 30.8227 22.274 30.2412 22.274 29.636C22.274 26.7072 24.6482 24.333 27.577 24.333C28.3445 24.333 29.0739 24.496 29.7325 24.7894Z" fill="url(#paint2_linear_1025_464)"/>
<defs>
<linearGradient id="paint0_linear_1025_464" x1="21.9962" y1="34.8182" x2="30.0276" y2="27.3971" gradientUnits="userSpaceOnUse">
<stop stop-color="#41549B"/>
<stop offset="1" stop-color="#DA2052"/>
</linearGradient>
<linearGradient id="paint1_linear_1025_464" x1="30.6192" y1="6.24209" x2="34.6349" y2="2.53157" gradientUnits="userSpaceOnUse">
<stop stop-color="#41549B"/>
<stop offset="1" stop-color="#DA2052"/>
</linearGradient>
<linearGradient id="paint2_linear_1025_464" x1="-11.9919" y1="42.8154" x2="28.1653" y2="5.71025" gradientUnits="userSpaceOnUse">
<stop stop-color="#41549B"/>
<stop offset="1" stop-color="#DA2052"/>
</linearGradient>
</defs>
</svg>
