<svg width="24" height="24" viewBox="0 0 24 24" fill="none" xmlns="http://www.w3.org/2000/svg">
<path d="M5 6.38646C4.58579 6.38646 4.25 6.72225 4.25 7.13646C4.25 7.55068 4.58579 7.88646 5 7.88646V6.38646ZM19 7.88646C19.4142 7.88646 19.75 7.55068 19.75 7.13646C19.75 6.72225 19.4142 6.38646 19 6.38646V7.88646ZM6.55556 7.13646V6.38646H5.80556V7.13646H6.55556ZM17.4444 7.13646H18.1944V6.38646H17.4444V7.13646ZM16.9325 14.7569L17.6531 14.9649L16.9325 14.7569ZM13.3409 17.8875L13.4658 18.627H13.4658L13.3409 17.8875ZM10.6591 17.8875L10.7841 17.148L10.7841 17.148L10.6591 17.8875ZM10.5364 17.8668L10.4115 18.6063H10.4115L10.5364 17.8668ZM7.06745 14.7569L6.34687 14.9649L7.06745 14.7569ZM13.4636 17.8668L13.3386 17.1272L13.4636 17.8668ZM8.76642 5.93619L9.44721 6.25087L8.76642 5.93619ZM9.52513 4.91865L9.0246 4.3601L9.0246 4.3601L9.52513 4.91865ZM10.6606 4.23875L10.9216 4.94187L10.6606 4.23875ZM13.3394 4.23875L13.6004 3.53563V3.53563L13.3394 4.23875ZM15.2336 5.93619L15.9144 5.62151V5.62151L15.2336 5.93619ZM5 7.88646H19V6.38646H5V7.88646ZM13.3386 17.1272L13.2159 17.148L13.4658 18.627L13.5885 18.6063L13.3386 17.1272ZM10.7841 17.148L10.6614 17.1272L10.4115 18.6063L10.5342 18.627L10.7841 17.148ZM16.6944 7.13646V11.1368H18.1944V7.13646H16.6944ZM7.30556 11.1368V7.13646H5.80556V11.1368H7.30556ZM16.6944 11.1368C16.6944 12.2915 16.532 13.4403 16.212 14.5489L17.6531 14.9649C18.0122 13.721 18.1944 12.4321 18.1944 11.1368H16.6944ZM13.2159 17.148C12.4109 17.284 11.5891 17.284 10.7841 17.148L10.5341 18.627C11.5046 18.791 12.4954 18.791 13.4658 18.627L13.2159 17.148ZM10.6614 17.1272C9.29558 16.8964 8.17709 15.8966 7.78803 14.5489L6.34687 14.9649C6.89429 16.8612 8.47201 18.2785 10.4115 18.6063L10.6614 17.1272ZM7.78803 14.5489C7.46801 13.4403 7.30556 12.2915 7.30556 11.1368H5.80556C5.80556 12.4321 5.9878 13.721 6.34687 14.9649L7.78803 14.5489ZM13.5885 18.6063C15.528 18.2785 17.1057 16.8612 17.6531 14.9649L16.212 14.5489C15.8229 15.8966 14.7044 16.8964 13.3386 17.1272L13.5885 18.6063ZM9.25 7.13646C9.25 6.83522 9.31608 6.53457 9.44721 6.25087L8.08563 5.62151C7.86498 6.09887 7.75 6.61393 7.75 7.13646H9.25ZM9.44721 6.25087C9.57849 5.96686 9.77353 5.70313 10.0257 5.47719L9.0246 4.3601C8.62671 4.71666 8.30614 5.14446 8.08563 5.62151L9.44721 6.25087ZM10.0257 5.47719C10.2779 5.25111 10.5818 5.06801 10.9216 4.94187L10.3996 3.53563C9.89017 3.72473 9.42232 4.00369 9.0246 4.3601L10.0257 5.47719ZM10.9216 4.94187C11.2615 4.81572 11.6281 4.75 12 4.75V3.25C11.4526 3.25 10.909 3.34654 10.3996 3.53563L10.9216 4.94187ZM12 4.75C12.3719 4.75 12.7385 4.81572 13.0784 4.94187L13.6004 3.53563C13.091 3.34654 12.5474 3.25 12 3.25V4.75ZM13.0784 4.94187C13.4182 5.06802 13.7221 5.25111 13.9743 5.47719L14.9754 4.36011C14.5777 4.00369 14.1098 3.72473 13.6004 3.53563L13.0784 4.94187ZM13.9743 5.47719C14.2265 5.70313 14.4215 5.96686 14.5528 6.25087L15.9144 5.62151C15.6939 5.14446 15.3733 4.71666 14.9754 4.36011L13.9743 5.47719ZM14.5528 6.25087C14.6839 6.53457 14.75 6.83522 14.75 7.13646H16.25C16.25 6.61393 16.135 6.09887 15.9144 5.62151L14.5528 6.25087ZM6.55556 7.88646H17.4444V6.38646H6.55556V7.88646Z" fill="#494655"/>
<path d="M11 11V14M13 11V14" stroke="#494655" stroke-width="1.5" stroke-linecap="round"/>
</svg>
