<svg width="24" height="24" viewBox="0 0 24 24" fill="none" xmlns="http://www.w3.org/2000/svg">
<path d="M6.32798 7.52807L10.5871 10.5106C11.4323 11.1025 12.5677 11.1025 13.4129 10.5106L17.672 7.52807M5.28397 13.7759C4.90534 12.2813 4.90534 10.7187 5.28397 9.2241C5.77961 7.26766 7.36233 5.75497 9.36989 5.31895L9.70432 5.24631C11.2164 4.9179 12.7836 4.9179 14.2957 5.24631L14.6301 5.31895C16.6377 5.75497 18.2204 7.26766 18.716 9.2241C19.0947 10.7187 19.0947 12.2813 18.716 13.7759C18.2204 15.7323 16.6377 17.245 14.6301 17.6811L14.2957 17.7537C12.7836 18.0821 11.2164 18.0821 9.70432 17.7537L9.36988 17.6811C7.36233 17.245 5.77961 15.7323 5.28397 13.7759Z" stroke="#494655" stroke-width="1.5" stroke-linecap="round"/>
</svg>
