<svg width="24" height="24" viewBox="0 0 24 24" fill="none" xmlns="http://www.w3.org/2000/svg">
<path d="M9.27929 9.71173H14.2465M9.27929 12.3999H12.4403M12.9147 17.3875H13.7888C16.1661 17.3875 18.2342 15.7722 18.7922 13.4794C19.0693 12.3408 19.0693 11.1532 18.7922 10.0147L18.719 9.71402C18.1812 7.50412 16.4281 5.78714 14.194 5.28205L13.8801 5.2111C12.6351 4.92963 11.3423 4.92963 10.0973 5.2111L9.91357 5.25263C7.59969 5.77574 5.7841 7.554 5.22706 9.84277C4.92247 11.0943 4.92525 12.4112 5.22984 13.6627C5.79559 15.9873 7.45979 17.9218 9.69228 18.8233L9.78959 18.8626C10.7557 19.2527 11.8624 18.7829 12.2588 17.8257C12.3679 17.5623 12.6277 17.3875 12.9147 17.3875Z" stroke="#494655" stroke-width="1.5" stroke-linecap="round"/>
</svg>
