<svg width="517" height="366" viewBox="0 0 517 366" fill="none" xmlns="http://www.w3.org/2000/svg">
<rect x="152" width="14" height="366" fill="#FEFFF8"/>
<rect x="162" y="14" width="14" height="107.5" transform="rotate(-90 162 14)" fill="#FEFFF8"/>
<rect x="160" y="366" width="14" height="107.5" transform="rotate(-90 160 366)" fill="#FEFFF8"/>
<path d="M14 96L50.75 143.25V159H43.75L14 118.75V96Z" fill="#FEFFF8"/>
<path d="M87.5 96L50.75 143.25V159H57.75L87.5 118.75V96Z" fill="#FEFFF8"/>
<rect y="96" width="14" height="63" fill="#FEFFF8"/>
<rect x="87.5" y="96" width="14" height="63" fill="#FEFFF8"/>
<rect x="152.25" y="96" width="14" height="63" fill="#FEFFF8"/>
<rect x="166.25" y="110" width="14" height="59.5" transform="rotate(-90 166.25 110)" fill="#FEFFF8"/>
<rect x="166.25" y="134.5" width="14" height="59.5" transform="rotate(-90 166.25 134.5)" fill="#FEFFF8"/>
<rect x="225.75" y="96" width="14" height="63" fill="#FEFFF8"/>
<path d="M365.75 134.5L378 159H362.25L350 134.5H365.75Z" fill="#FEFFF8"/>
<rect x="304.5" y="110" width="14" height="59.5" transform="rotate(-90 304.5 110)" fill="#FEFFF8"/>
<rect x="304.5" y="134.5" width="14" height="59.5" transform="rotate(-90 304.5 134.5)" fill="#FEFFF8"/>
<rect x="290.5" y="96" width="14" height="63" fill="#FEFFF8"/>
<rect x="364" y="96" width="14" height="38.5" fill="#FEFFF8"/>
<rect x="442.75" y="110" width="14" height="73.5" transform="rotate(-90 442.75 110)" fill="#FEFFF8"/>
<rect x="428.75" y="159" width="14" height="73.5" transform="rotate(-90 428.75 159)" fill="#FEFFF8"/>
<rect x="442.75" y="134.5" width="14" height="59.5" transform="rotate(-90 442.75 134.5)" fill="#FEFFF8"/>
<rect x="428.75" y="96" width="14" height="38.5" fill="#FEFFF8"/>
<rect x="502.25" y="120.5" width="14" height="38.5" fill="#FEFFF8"/>
<rect x="43.75" y="222" width="14" height="49" fill="#FEFFF8"/>
<rect y="222" width="14" height="101.5" transform="rotate(-90 0 222)" fill="#FEFFF8"/>
<rect x="152.25" y="208" width="14" height="63" fill="#FEFFF8"/>
<rect x="166.25" y="222" width="14" height="73.5" transform="rotate(-90 166.25 222)" fill="#FEFFF8"/>
<rect x="166.25" y="246.5" width="14" height="57.75" transform="rotate(-90 166.25 246.5)" fill="#FEFFF8"/>
<rect x="166.25" y="271" width="14" height="73.5" transform="rotate(-90 166.25 271)" fill="#FEFFF8"/>
<rect x="290.5" y="208" width="14" height="63" fill="#FEFFF8"/>
<rect x="304.5" y="222" width="14" height="73.5" transform="rotate(-90 304.5 222)" fill="#FEFFF8"/>
<rect x="304.5" y="271" width="14" height="73.5" transform="rotate(-90 304.5 271)" fill="#FEFFF8"/>
<rect x="442.75" y="246.5" width="14" height="59.5" transform="rotate(-90 442.75 246.5)" fill="#FEFFF8"/>
<rect x="428.75" y="208" width="14" height="63" fill="#FEFFF8"/>
<rect x="502.25" y="208" width="14" height="63" fill="#FEFFF8"/>
</svg>
