<svg width="500" height="500" viewBox="0 0 500 500" fill="none" xmlns="http://www.w3.org/2000/svg">
<g clip-path="url(#clip0_1255_407)">
<path d="M366.1 123.2H366.3C367.3 123.2 368.1 123.5 368.7 124C369.2 124.5 369.5 125.3 369.5 126.4V173.8C369.5 174.7 369.2 175.4 368.7 175.9C368.2 176.4 367.4 176.7 366.3 176.7H366.1V449.2C366.1 459.2 362.6 467.7 355.6 474.7C348.6 481.7 340.1 485.2 330.1 485.2H169.1C159.2 485.2 150.8 481.7 143.8 474.7C136.8 467.7 133.3 459.2 133.3 449.2V188.6C132.5 188.6 131.9 188.4 131.4 187.9C130.9 187.5 130.6 186.8 130.6 185.9V158.2C130.6 157.5 130.9 156.8 131.4 156.2C131.9 155.6 132.6 155.3 133.3 155.3V145H133.1C132.3 145 131.7 144.7 131.2 144.1C130.7 143.5 130.4 142.9 130.4 142.3V115.3C130.4 114.4 130.7 113.7 131.2 113.1C131.7 112.5 132.4 112.2 133.1 112.2H133.3V96.3998H133C132.6 96.3998 132.2 96.2998 132 96.0998C131.8 95.8998 131.7 95.4998 131.7 94.8998V80.4998C131.7 79.8998 131.8 79.4998 132 79.1998C132.2 78.8998 132.6 78.7998 133 78.7998H133.4V50.7998C133.4 40.7998 136.9 32.2998 143.9 25.2998C150.9 18.2998 159.3 14.7998 169.2 14.7998H330.2C340.2 14.7998 348.7 18.2998 355.7 25.2998C362.7 32.2998 366.2 40.7998 366.2 50.7998V123.2H366.1ZM307.9 32.9998C307.9 36.0998 306.7 38.7998 304.2 40.9998C301.7 43.1998 298.8 44.2998 295.5 44.2998H204.7C201.1 44.2998 198.1 43.1998 195.7 40.9998C193.3 38.7998 192.1 36.1998 192.1 32.9998V28.6998H169.4C163.3 28.6998 158 30.8998 153.7 35.1998C149.4 39.4998 147.2 44.7998 147.2 50.8998V449.3C147.2 455.4 149.4 460.7 153.7 465.2C158 469.6 163.3 471.8 169.4 471.8H329.7C335.8 471.8 341.1 469.6 345.4 465.2C349.7 460.8 351.9 455.5 351.9 449.3V50.9998C351.9 44.8998 349.7 39.5998 345.4 35.2998C341.1 30.9998 335.8 28.7998 329.7 28.7998H307.9V32.9998V32.9998ZM263 35.1998C263.4 34.9998 263.6 34.4998 263.6 33.6998C263.6 33.3998 263.4 33.0998 263 32.7998C262.6 32.4998 262.3 32.3998 262 32.3998H238C237.4 32.3998 237 32.5998 236.8 32.7998C236.6 33.0998 236.5 33.3998 236.5 33.6998C236.5 34.4998 236.6 34.8998 236.8 35.1998C237 35.3998 237.4 35.4998 238 35.4998H262C262.3 35.4998 262.7 35.3998 263 35.1998ZM271.9 31.5998C271.3 32.2998 271 32.9998 271 33.6998C271 34.7998 271.3 35.5998 271.9 36.1998C272.5 36.7998 273.3 37.0998 274.4 37.0998C275.1 37.0998 275.9 36.7998 276.6 36.1998C277.3 35.5998 277.7 34.7998 277.7 33.6998C277.7 32.9998 277.3 32.1998 276.6 31.5998C275.8 30.8998 275.1 30.5998 274.4 30.5998C273.3 30.5998 272.5 30.8998 271.9 31.5998Z" fill="#1A1A1A"/>
<path d="M468.669 374.417C457.96 399.597 452.463 412.522 430.646 433.752L413.388 416.016C414.821 414.376 416.23 412.717 417.614 411.039C439.903 384.028 455.788 352.18 463.914 317.888C473.971 275.443 472.979 233.494 458.691 192.281L449.857 191.807L408.51 190.182L410.421 76C433.866 100.094 462.449 138.961 474.889 170.193C487.33 201.425 493.497 234.802 493.038 268.417C492.58 302.032 485.504 335.228 472.217 366.109C470.961 369.027 469.787 371.789 468.669 374.417Z" fill="#1A1A1A"/>
<path d="M31.3972 155.335C42.1067 130.154 47.6035 117.23 69.4205 95.9999L86.6788 113.735C85.2454 115.375 83.8363 117.034 82.4519 118.712C60.1631 145.724 44.2781 177.571 36.1527 211.863C26.0955 254.308 27.0874 296.257 41.3758 337.47L50.209 337.945L91.5565 339.569L89.6455 453.751C66.2001 429.658 37.6177 390.79 25.1773 359.558C12.7369 328.326 6.56988 294.95 7.02838 261.334C7.48688 227.719 14.5619 194.523 27.8495 163.642C29.1052 160.724 30.2796 157.963 31.3972 155.335Z" fill="#1A1A1A"/>
</g>
<defs>
<clipPath id="clip0_1255_407">
<rect width="500" height="500" fill="white"/>
</clipPath>
</defs>
</svg>
